<svg width="87" height="87" viewBox="0 0 87 87" fill="none" xmlns="http://www.w3.org/2000/svg">
<path fill-rule="evenodd" clip-rule="evenodd" d="M43.5 62.1428C42.7789 62.1428 42.0874 61.8564 41.5775 61.3465C41.0677 60.8367 40.7812 60.1451 40.7812 59.4241L40.7812 27.9246L29.1124 39.5989C28.8596 39.8517 28.5595 40.0522 28.2292 40.189C27.899 40.3258 27.545 40.3963 27.1875 40.3963C26.83 40.3963 26.476 40.3258 26.1458 40.189C25.8155 40.0522 25.5154 39.8517 25.2626 39.5989C25.0098 39.3462 24.8093 39.0461 24.6725 38.7158C24.5357 38.3855 24.4653 38.0315 24.4653 37.6741C24.4653 37.3166 24.5357 36.9626 24.6725 36.6323C24.8093 36.3021 25.0098 36.002 25.2626 35.7492L41.5751 19.4367C41.8277 19.1835 42.1277 18.9826 42.458 18.8456C42.7883 18.7085 43.1424 18.638 43.5 18.638C43.8576 18.638 44.2117 18.7085 44.542 18.8456C44.8723 18.9826 45.1723 19.1835 45.4249 19.4367L61.7374 35.7492C61.9901 36.002 62.1907 36.3021 62.3275 36.6323C62.4643 36.9626 62.5347 37.3166 62.5347 37.6741C62.5347 38.0316 62.4643 38.3855 62.3275 38.7158C62.1907 39.0461 61.9901 39.3462 61.7374 39.5989C61.2269 40.1095 60.5345 40.3963 59.8125 40.3963C59.455 40.3963 59.101 40.3258 58.7707 40.189C58.4405 40.0522 58.1404 39.8517 57.8876 39.5989L46.2187 27.9246L46.2187 59.4241C46.2187 60.1451 45.9323 60.8367 45.4224 61.3465C44.9126 61.8564 44.221 62.1428 43.5 62.1428V62.1428Z" fill="white"/>
<path d="M74.9399 41.6104C75.2075 45.9627 74.5791 50.3239 73.0946 54.4166C71.6101 58.5093 69.302 62.2441 66.3171 65.3834C63.3322 68.5228 59.7358 70.998 55.7564 72.6518C51.7771 74.3056 47.502 75.1017 43.2029 74.9896C38.9037 74.8775 34.6746 73.8595 30.7844 72.0005C26.8942 70.1414 23.428 67.482 20.6062 64.1912C17.7845 60.9004 15.6688 57.0502 14.3938 52.8855C13.1187 48.7208 12.7123 44.3326 13.2001 40" stroke="white" stroke-width="4.5" stroke-linecap="round"/>
</svg>
